<?xml version="1.0" standalone="no"?>
<!DOCTYPE svg PUBLIC "-//W3C//DTD SVG 20010904//EN"
 "http://www.w3.org/TR/2001/REC-SVG-20010904/DTD/svg10.dtd">
<svg version="1.0" xmlns="http://www.w3.org/2000/svg"
 width="1024.000000pt" height="1024.000000pt" viewBox="0 0 1024.000000 1024.000000"
 preserveAspectRatio="xMidYMid meet">
<metadata>
Created by potrace 1.14, written by Peter Selinger 2001-2017
</metadata>
<g transform="translate(0.000000,1024.000000) scale(0.100000,-0.100000)"
fill="#000000" stroke="none">
<path d="M0 5120 l0 -5110 5120 0 5120 0 0 5110 0 5110 -5120 0 -5120 0 0
-5110z m1895 2698 c129 -18 415 -15 558 6 113 17 125 16 250 0 172 -23 412
-23 588 -1 127 17 142 17 265 1 170 -22 403 -22 577 0 77 9 141 16 143 13 2
-2 39 -107 83 -233 156 -453 253 -724 441 -1229 211 -567 512 -1336 524 -1338
18 -4 835 2200 1000 2698 37 113 29 107 122 88 106 -22 332 -22 438 0 44 9 80
16 82 14 1 -1 -48 -112 -108 -247 -351 -787 -944 -2161 -1273 -2951 l-56 -136
107 -267 c59 -146 110 -266 114 -266 4 0 10 6 13 13 218 538 411 1033 629
1617 77 206 194 519 260 695 214 571 377 1023 495 1375 31 91 57 166 58 167 1
2 37 -5 81 -14 105 -21 342 -22 444 -1 41 9 77 15 79 13 1 -2 -74 -176 -167
-387 -416 -935 -868 -1984 -1180 -2733 -154 -373 -253 -611 -345 -840 -47
-115 -104 -255 -126 -310 l-41 -100 107 -257 c59 -142 111 -254 116 -249 17
17 365 842 568 1350 168 418 278 704 544 1415 407 1090 519 1395 687 1881 43
126 80 230 82 232 1 1 38 -5 82 -14 104 -21 331 -21 439 0 44 8 81 14 82 13 1
-1 -84 -195 -188 -431 -352 -794 -821 -1876 -1044 -2410 -363 -868 -731 -1777
-1010 -2495 -56 -146 -110 -283 -119 -305 l-16 -40 -278 1 -277 1 -69 176
c-38 97 -73 177 -77 177 -3 0 -28 -55 -54 -123 -26 -67 -58 -147 -70 -177
l-23 -54 -276 -1 -276 0 -72 183 c-40 100 -75 179 -78 175 -4 -5 -37 -87 -74
-183 l-68 -175 -278 0 -277 0 -16 40 c-9 22 -90 229 -181 460 -320 814 -657
1656 -966 2410 -95 231 -191 467 -215 525 -24 58 -150 364 -280 680 -130 316
-283 688 -340 825 -56 138 -148 359 -204 492 -56 134 -101 246 -101 249 0 3
17 3 38 0 20 -3 78 -11 127 -18z"/>
<path d="M3546 7507 c3 -10 9 -15 12 -12 3 3 0 11 -7 18 -10 9 -11 8 -5 -6z"/>
<path d="M2703 7500 c29 -100 502 -1398 546 -1500 6 -14 55 -142 110 -285 278
-728 1057 -2658 1110 -2753 8 -14 13 -9 30 28 11 25 21 53 21 63 0 32 -540
1372 -1230 3047 -488 1186 -609 1475 -587 1400z"/>
<path d="M3565 7460 c24 -80 170 -489 300 -840 29 -80 85 -230 123 -335 158
-429 862 -2220 906 -2302 13 -25 13 -24 39 39 l26 65 -30 74 c-17 41 -82 202
-146 359 -190 467 -241 591 -458 1120 -114 278 -222 541 -240 585 -18 44 -95
229 -170 410 -75 182 -184 445 -242 585 -98 239 -126 300 -108 240z"/>
<path d="M5135 3544 c-32 -76 -32 -78 75 -334 56 -135 105 -249 110 -253 4 -5
17 16 29 46 l22 54 -101 254 c-56 140 -105 258 -110 263 -5 5 -16 -8 -25 -30z"/>
</g>
</svg>
